{"accessors": [{"bufferView": 2, "componentType": 5126, "count": 1714, "max": [2.7094249725341797, 23.636398315429688, 2.7232580184936523], "min": [-2.9261043071746826, 7.152557373046875e-07, -3.355236768722534], "type": "VEC3"}, {"bufferView": 2, "byteOffset": 20568, "componentType": 5126, "count": 1714, "max": [0.9999628067016602, 0.9998568296432495, 0.9999327659606934], "min": [-0.9999302625656128, -0.9998962879180908, -0.9999963045120239], "type": "VEC3"}, {"bufferView": 3, "componentType": 5126, "count": 1714, "max": [1.0, 0.9517377614974976, 0.9675641059875488, 1.0], "min": [-0.9911690354347229, -0.9861547946929932, -1.0, -1.0], "type": "VEC4"}, {"bufferView": 1, "componentType": 5126, "count": 1714, "max": [0.6906581521034241, 0.8110838532447815], "min": [0.4258212745189667, -0.18891611695289612], "type": "VEC2"}, {"bufferView": 0, "componentType": 5125, "count": 5553, "type": "SCALAR"}, {"bufferView": 2, "byteOffset": 41136, "componentType": 5126, "count": 2976, "max": [2.6673429012298584, 5.027189254760742, 9.655155181884766], "min": [-3.671013593673706, -3.670520544052124, -6.8861541748046875], "type": "VEC3"}, {"bufferView": 2, "byteOffset": 76848, "componentType": 5126, "count": 2976, "max": [0.9934108257293701, 1.0, 0.9997696876525879], "min": [-0.9990680813789368, -0.9789971113204956, -0.9971883893013], "type": "VEC3"}, {"bufferView": 1, "byteOffset": 13712, "componentType": 5126, "count": 2976, "max": [1.0878052711486816, 1.0558640956878662], "min": [0.011691117659211159, -0.01862887665629387], "type": "VEC2"}, {"bufferView": 0, "byteOffset": 22212, "componentType": 5125, "count": 4464, "type": "SCALAR"}], "asset": {"extras": {"author": "rhcreations (https://sketchfab.com/rhcreations)", "license": "CC-BY-4.0 (http://creativecommons.org/licenses/by/4.0/)", "source": "https://sketchfab.com/3d-models/redwood-tree-2-2c34fb28a756474eb8072a450c8f632b", "title": "Redwood Tree 2"}, "generator": "Sketchfab-13.41.0", "version": "2.0"}, "bufferViews": [{"buffer": 0, "byteLength": 40068, "name": "floatBufferViews", "target": 34963}, {"buffer": 0, "byteLength": 37520, "byteOffset": 40068, "byteStride": 8, "name": "floatBufferViews", "target": 34962}, {"buffer": 0, "byteLength": 112560, "byteOffset": 77588, "byteStride": 12, "name": "floatBufferViews", "target": 34962}, {"buffer": 0, "byteLength": 27424, "byteOffset": 190148, "byteStride": 16, "name": "floatBufferViews", "target": 34962}], "buffers": [{"byteLength": 217572, "uri": "scene.bin"}], "images": [{"uri": "textures/Redwood_Tree_2_Material_diffuse.jpeg"}, {"uri": "textures/Redwood_Tree_2_Material_normal.png"}, {"uri": "textures/Buddleia_Shrub_Material.001_diffuse.png"}], "materials": [{"doubleSided": true, "name": "Redwood_Tree_2_Material", "normalTexture": {"index": 1, "scale": 0.601973367614521}, "pbrMetallicRoughness": {"baseColorTexture": {"index": 0}, "baseColorFactor": [1.0, 1.0, 1.0, 1.0], "metallicFactor": 0.0, "roughnessFactor": 0.5383314022997339}}, {"alphaMode": "MASK", "doubleSided": true, "name": "Buddleia_Shrub_Material.001", "pbrMetallicRoughness": {"baseColorTexture": {"index": 2}, "baseColorFactor": [1.0, 1.0, 1.0, 0.7395198171], "metallicFactor": 0.0, "roughnessFactor": 0.35}, "alphaCutoff": 0.4}], "meshes": [{"name": "Object_0", "primitives": [{"attributes": {"NORMAL": 1, "POSITION": 0, "TANGENT": 2, "TEXCOORD_0": 3}, "indices": 4, "material": 0, "mode": 4}]}, {"name": "Object_1", "primitives": [{"attributes": {"NORMAL": 6, "POSITION": 5, "TEXCOORD_0": 7}, "indices": 8, "material": 1, "mode": 4}]}], "nodes": [{"children": [1], "matrix": [1.0, 0.0, 0.0, 0.0, 0.0, 2.220446049250313e-16, -1.0, 0.0, 0.0, 1.0, 2.220446049250313e-16, 0.0, 0.0, 0.0, 0.0, 1.0], "name": "Sketchfab_model"}, {"children": [2], "name": "root"}, {"children": [3], "matrix": [1.0, 0.0, 0.0, 0.0, 0.0, 2.220446049250313e-16, 1.0, 0.0, 0.0, -1.0, 2.220446049250313e-16, 0.0, 0.0, 0.0, 0.0, 1.0], "name": "GLTF_SceneRootNode"}, {"children": [4, 5], "name": "Redwood Tree 2_1"}, {"mesh": 0, "name": "Object_4"}, {"children": [6], "matrix": [-1.017094093612434, 0.12977888509578342, -0.9858594259471433, 0.0, 0.6197963770622246, -0.12166853794253653, -0.6554496762426197, 0.0, -0.1441132553927874, -0.8981516150038995, 0.03044615169170187, 0.0, 0.014732224866747856, 17.988367080688477, -0.11348224431276321, 1.0], "name": "Redwood Tree 2 Leaves_0"}, {"mesh": 1, "name": "Object_6"}], "samplers": [{"magFilter": 9729, "minFilter": 9987, "wrapS": 10497, "wrapT": 10497}], "scene": 0, "scenes": [{"name": "Sketchfab_Scene", "nodes": [0]}], "textures": [{"sampler": 0, "source": 0}, {"sampler": 0, "source": 1}, {"sampler": 0, "source": 2}]}